<?xml version="1.0" encoding="utf-8"?>
<!-- Generator: Adobe Illustrator 16.0.0, SVG Export Plug-In . SVG Version: 6.00 Build 0)  -->
<!DOCTYPE svg PUBLIC "-//W3C//DTD SVG 1.1//EN" "http://www.w3.org/Graphics/SVG/1.1/DTD/svg11.dtd">
<svg version="1.1" id="Layer_1" xmlns="http://www.w3.org/2000/svg" xmlns:xlink="http://www.w3.org/1999/xlink" x="0px" y="0px"
	 width="171.5px" height="57.092px" viewBox="0 0 171.5 57.092" enable-background="new 0 0 171.5 57.092" xml:space="preserve">
<g>
	<path fill="#477763" stroke="#477763" stroke-width="2" stroke-miterlimit="10" d="M62.051,23.217l5.698-15.304h1.515l5.885,15.304
		h-2.128l-1.234-3.535h-6.552l-1.249,3.535H62.051z M65.856,17.885h5.271l-2.61-7.569l-0.25,0.89
		c-0.048,0.177-0.104,0.353-0.169,0.528L65.856,17.885z"/>
	<path fill="#477763" stroke="#477763" stroke-width="2" stroke-miterlimit="10" d="M79.713,7.933c2.484,0,4.404,0.583,5.759,1.748
		c1.504,1.296,2.256,3.262,2.256,5.899c0,2.63-0.754,4.593-2.264,5.889c-1.355,1.165-3.272,1.748-5.751,1.748h-2.889V7.933H79.713z
		 M78.652,9.73v11.69h1.337c3.929,0,5.893-1.949,5.893-5.846c0-3.896-1.964-5.845-5.893-5.845H78.652z"/>
	<path fill="#477763" stroke="#477763" stroke-width="2" stroke-miterlimit="10" d="M90.269,23.217V7.933h1.811v15.284H90.269z"/>
	<path fill="#477763" stroke="#477763" stroke-width="2" stroke-miterlimit="10" d="M95.333,23.217V7.933h1.795l5.309,10.9
		c0.162,0.325,0.279,0.745,0.352,1.259c0.035-0.462,0.146-0.881,0.333-1.258l5.295-10.901h1.833v15.284h-1.818l0.125-10.382
		c0.006-0.527,0.086-1.246,0.24-2.158c-0.118,0.404-0.237,0.756-0.356,1.055c-0.083,0.209-0.22,0.531-0.41,0.967l-5.225,10.694
		l-5.367-10.978c-0.106-0.215-0.243-0.521-0.41-0.918l-0.231-0.684c0.124,0.456,0.205,0.896,0.24,1.318
		c0.012,0.117,0.018,0.258,0.018,0.42l0.09,10.665H95.333z"/>
	<path fill="#477763" stroke="#477763" stroke-width="2" stroke-miterlimit="10" d="M117.044,23.217l5.697-15.304h1.516
		l5.885,15.304h-2.129l-1.233-3.535h-6.552l-1.249,3.535H117.044z M120.849,17.885h5.271l-2.61-7.569l-0.25,0.89
		c-0.047,0.177-0.104,0.353-0.169,0.528L120.849,17.885z"/>
	<path fill="#477763" stroke="#477763" stroke-width="2" stroke-miterlimit="10" d="M134.706,7.933c2.484,0,4.405,0.583,5.76,1.748
		c1.504,1.296,2.256,3.262,2.256,5.899c0,2.63-0.755,4.593-2.265,5.889c-1.355,1.165-3.272,1.748-5.751,1.748h-2.889V7.933H134.706z
		 M133.645,9.73v11.69h1.337c3.93,0,5.894-1.949,5.894-5.846c0-3.896-1.964-5.845-5.894-5.845H133.645z"/>
	<path fill="#477763" stroke="#477763" stroke-width="2" stroke-miterlimit="10" d="M145.262,23.217V7.933h1.811v15.284H145.262z"/>
	<path fill="#477763" stroke="#477763" stroke-width="2" stroke-miterlimit="10" d="M150.327,23.217V7.933h1.795l5.309,10.9
		c0.162,0.325,0.279,0.745,0.352,1.259c0.035-0.462,0.146-0.881,0.333-1.258l5.295-10.901h1.833v15.284h-1.818l0.125-10.382
		c0.006-0.527,0.086-1.246,0.24-2.158c-0.118,0.404-0.237,0.756-0.356,1.055c-0.083,0.209-0.22,0.531-0.41,0.967l-5.225,10.694
		l-5.367-10.978c-0.106-0.215-0.243-0.521-0.41-0.918l-0.231-0.684c0.124,0.456,0.205,0.896,0.24,1.318
		c0.012,0.117,0.018,0.258,0.018,0.42l0.09,10.665H150.327z"/>
</g>
<g>
	<path fill="#477763" stroke="#477763" stroke-width="2" stroke-miterlimit="10" d="M82.802,48.979V33.696h2.002l-0.029,7.168
		l0.586-0.723l5.605-6.445h2.589l-6.983,7.656c0.131,0.078,0.261,0.195,0.391,0.352l0.098,0.117l6.641,7.158h-2.773l-6.152-6.758
		l0.029,0.918v5.84H82.802z"/>
	<path fill="#477763" stroke="#477763" stroke-width="2" stroke-miterlimit="10" d="M97.773,33.696v9.424
		c0,1.321,0.306,2.36,0.918,3.115c0.671,0.813,1.65,1.221,2.939,1.221c1.296,0,2.272-0.407,2.93-1.221
		c0.605-0.742,0.908-1.78,0.908-3.115v-9.424h2.002v9.541c0,1.81-0.518,3.265-1.553,4.365c-1.062,1.12-2.49,1.68-4.287,1.68
		s-3.226-0.563-4.287-1.689c-1.048-1.101-1.572-2.552-1.572-4.355v-9.541H97.773z"/>
	<path fill="#477763" stroke="#477763" stroke-width="2" stroke-miterlimit="10" d="M114.023,33.696
		c2.722,0,4.824,0.583,6.309,1.748c1.647,1.296,2.471,3.262,2.471,5.898c0,2.63-0.827,4.593-2.48,5.889
		c-1.484,1.165-3.584,1.748-6.299,1.748h-3.164V33.696H114.023z M112.861,35.493v11.689h1.465c4.304,0,6.455-1.948,6.455-5.845
		s-2.151-5.845-6.455-5.845H112.861z"/>
	<path fill="#477763" stroke="#477763" stroke-width="2" stroke-miterlimit="10" d="M127.451,33.696v9.424
		c0,1.321,0.306,2.36,0.918,3.115c0.671,0.813,1.65,1.221,2.939,1.221c1.296,0,2.272-0.407,2.93-1.221
		c0.605-0.742,0.908-1.78,0.908-3.115v-9.424h2.002v9.541c0,1.81-0.518,3.265-1.553,4.365c-1.062,1.12-2.49,1.68-4.287,1.68
		s-3.226-0.563-4.287-1.689c-1.048-1.101-1.572-2.552-1.572-4.355v-9.541H127.451z M128.417,30.718c0-0.293,0.114-0.55,0.342-0.771
		s0.488-0.332,0.781-0.332c0.3,0,0.554,0.108,0.762,0.327s0.313,0.477,0.313,0.776c0,0.319-0.1,0.581-0.298,0.786
		s-0.457,0.308-0.776,0.308c-0.332,0-0.603-0.101-0.811-0.303S128.417,31.043,128.417,30.718z M131.982,30.718
		c0-0.293,0.109-0.55,0.327-0.771s0.474-0.332,0.767-0.332s0.55,0.11,0.771,0.332s0.332,0.479,0.332,0.771
		c0,0.319-0.104,0.581-0.313,0.786s-0.472,0.308-0.791,0.308c-0.313,0-0.573-0.104-0.781-0.313S131.982,31.03,131.982,30.718z"/>
	<path fill="#477763" stroke="#477763" stroke-width="2" stroke-miterlimit="10" d="M141.748,44.604c0,0.921,0.29,1.639,0.869,2.15
		c0.554,0.487,1.299,0.73,2.236,0.73c0.808,0,1.478-0.188,2.012-0.566c0.605-0.429,0.908-1.03,0.908-1.805
		c0-0.846-0.339-1.513-1.015-2.001c-0.397-0.286-1.126-0.604-2.187-0.956l-0.471-0.151c-1.275-0.424-2.227-0.893-2.852-1.406
		c-0.866-0.71-1.299-1.729-1.299-3.057c0-1.321,0.449-2.353,1.348-3.095c0.833-0.696,1.924-1.045,3.271-1.045
		c1.484,0,2.669,0.407,3.555,1.221c0.95,0.872,1.426,1.999,1.426,3.379h-1.999c-0.234-1.96-1.22-2.939-2.956-2.939
		c-0.786,0-1.43,0.212-1.931,0.635c-0.526,0.456-0.79,1.071-0.79,1.846c0,0.788,0.266,1.374,0.798,1.758
		c0.376,0.273,1.025,0.56,1.946,0.859l0.605,0.195c1.673,0.54,2.864,1.182,3.574,1.924c0.657,0.696,0.986,1.608,0.986,2.734
		c0,1.309-0.515,2.363-1.543,3.164c-0.944,0.735-2.09,1.104-3.438,1.104c-1.458,0-2.639-0.403-3.54-1.211s-1.414-1.937-1.538-3.389
		L141.748,44.604z"/>
</g>
<g>
	<path fill="#D59B2D" d="M53.815,23.02c-0.938-0.964-2.458-0.964-3.396,0c-0.224,0.23-0.403,0.505-0.524,0.808l-3.082,7.729
		l-0.346-0.354c-1.1-1.127-2.88-1.127-3.981,0L40.154,33.6c-0.935,0.956-2.15,1.57-3.458,1.745l-0.049,0.006
		c-2.576,0.394-4.475,2.68-4.453,5.355v9.758H30.26c-0.395,0-0.716,0.331-0.716,0.736v4.583c0,0.407,0.321,0.737,0.716,0.737h12.869
		c0.396,0,0.716-0.33,0.716-0.737V51.2c0-0.405-0.319-0.736-0.716-0.736h-1.935v-6.425l4.549-1.824
		c1.107-0.444,2.11-1.116,2.95-1.981l0.095-0.096c0.957-0.987,1.674-2.191,2.095-3.512l3.552-11.223
		c0.006-0.017,0.01-0.034,0.015-0.052C54.649,24.514,54.406,23.63,53.815,23.02z M42.416,55.051H30.974v-3.116h11.441V55.051z
		 M53.064,24.979L49.523,36.17c-0.352,1.104-0.949,2.107-1.747,2.927l-0.095,0.098c-0.699,0.719-1.536,1.283-2.458,1.651
		l-5.003,2.005c-0.275,0.113-0.456,0.384-0.456,0.685v6.929h-6.14v-9.758c-0.02-1.953,1.37-3.622,3.251-3.903
		c1.623-0.217,3.13-0.977,4.289-2.165l2.333-2.396c0.548-0.536,1.41-0.536,1.958,0l0.601,0.616l-5.218,5.362
		c-0.28,0.286-0.28,0.75,0,1.039c0.279,0.287,0.732,0.287,1.012,0l5.721-5.881c0.015-0.016,0.029-0.034,0.041-0.053
		c0.014-0.014,0.025-0.029,0.037-0.044c0.03-0.044,0.056-0.09,0.075-0.141v-0.003l0,0v-0.002l3.495-8.749
		c0.203-0.509,0.769-0.753,1.265-0.545c0.119,0.051,0.228,0.125,0.319,0.219C53.036,24.303,53.133,24.647,53.064,24.979z"/>
	<path fill="#D59B2D" d="M26.455,50.464H24.52v-9.758c0.022-2.675-1.876-4.96-4.45-5.355l-0.05-0.007
		c-1.309-0.174-2.525-0.788-3.46-1.745l-2.332-2.396c-1.101-1.127-2.882-1.127-3.981,0l-0.346,0.354L6.82,23.828
		c-0.502-1.261-1.903-1.866-3.131-1.35c-1.103,0.462-1.709,1.688-1.423,2.876c0.005,0.017,0.009,0.034,0.015,0.053l3.552,11.22
		c0.419,1.32,1.136,2.524,2.094,3.512l0.095,0.096c0.839,0.865,1.843,1.537,2.951,1.981l4.548,1.824v6.425h-1.935
		c-0.396,0-0.716,0.331-0.716,0.736v4.583c0,0.407,0.319,0.737,0.716,0.737h12.869c0.395,0,0.716-0.33,0.716-0.735
		c0-0.001,0-0.001,0-0.002V51.2C27.171,50.795,26.85,50.464,26.455,50.464C26.456,50.464,26.456,50.464,26.455,50.464z
		 M16.495,42.851l-5.003-2.005c-0.921-0.368-1.759-0.933-2.458-1.651l-0.095-0.098c-0.798-0.819-1.396-1.823-1.746-2.927
		L3.651,24.979c-0.07-0.333,0.029-0.679,0.262-0.92c0.379-0.39,0.993-0.391,1.373-0.001c0.09,0.093,0.162,0.205,0.211,0.328
		l3.485,8.748v0.002l0,0v0.003c0.021,0.049,0.046,0.097,0.077,0.141c0.012,0.015,0.023,0.029,0.035,0.044
		c0.013,0.018,0.027,0.035,0.042,0.053l5.723,5.88c0.279,0.287,0.732,0.287,1.011,0c0.279-0.288,0.279-0.752,0-1.038l-5.211-5.36
		l0.602-0.616c0.547-0.536,1.41-0.536,1.957,0l2.333,2.398c1.17,1.195,2.693,1.957,4.33,2.168c1.865,0.295,3.234,1.959,3.21,3.899
		v9.758h-6.14v-6.93C16.95,43.234,16.771,42.964,16.495,42.851z M25.741,55.051H14.3v-3.116h11.441V55.051z"/>
	<path fill="#D59B2D" d="M36.45,30.654c0.112-0.275,0.052-0.591-0.155-0.801L24.838,18.083l5.031-2.13
		c2.123-0.896,4.053-2.211,5.682-3.872c0.281-0.286,0.283-0.752,0.005-1.041c-0.085-0.088-0.19-0.152-0.306-0.188L34.6,10.655
		c1.124-1.047,1.766-2.532,1.77-4.091c0-0.329-0.214-0.618-0.522-0.707c0.344-0.739,0.522-1.548,0.522-2.367
		c0-0.405-0.321-0.735-0.716-0.736c-0.138,0-0.272,0.041-0.388,0.117L27.625,7.9c0.058-0.746-0.053-1.496-0.324-2.191
		c-0.09-0.232-0.289-0.401-0.528-0.45c-0.034-0.007-0.069-0.011-0.104-0.012c0.031-0.694-0.083-1.386-0.331-2.029
		c-0.148-0.378-0.564-0.562-0.931-0.411c-0.127,0.052-0.236,0.141-0.315,0.254l-6.213,8.897l-2.063-2.12
		c-1.201-1.241-2.834-1.937-4.538-1.932c-1.42,0.001-2.594,1.136-2.684,2.594c-0.941,0.702-1.529,1.798-1.606,2.991L7.939,14.26
		c-0.021,0.33,0.175,0.634,0.479,0.741c0.076,0.028,0.156,0.042,0.236,0.043c0.235-0.001,0.454-0.12,0.588-0.318
		c0.492-0.731,1.224-1.256,2.063-1.475c0.31,0.125,0.641,0.19,0.974,0.191c0.759,0,1.375,0.63,1.376,1.411v1.917
		c0.005,4.65,3.672,8.418,8.197,8.424c0.822-0.002,1.602,0.384,2.111,1.045l3.556,4.59c0.136,0.176,0.343,0.278,0.559,0.278h7.709
		C36.077,31.109,36.34,30.931,36.45,30.654z M25.227,5.392c-0.077,0.758-0.397,1.468-0.909,2.02
		c-0.277,0.289-0.273,0.754,0.009,1.039c0.282,0.285,0.735,0.281,1.011-0.01c0.005-0.004,0.009-0.009,0.014-0.014l0.858-0.924
		c0.002,0.547-0.125,1.086-0.368,1.571l-5.896,3.882L25.227,5.392z M28.425,29.638l-3.343-4.313
		c-0.782-1.013-1.971-1.603-3.229-1.601c-3.735-0.003-6.764-3.114-6.768-6.952v-1.918c-0.001-1.592-1.257-2.882-2.805-2.883
		c-0.697,0-1.262-0.58-1.262-1.296c0-0.715,0.565-1.296,1.262-1.296c1.322-0.004,2.591,0.536,3.524,1.5l3.479,3.574
		c0.237,0.245,0.608,0.286,0.893,0.099L34.64,5.03c-0.379,0.949-1.094,1.713-2,2.142l-0.004,0.004
		c-0.352,0.185-0.491,0.627-0.31,0.989c0.168,0.338,0.562,0.489,0.904,0.345l0,0l1.52-0.714c-0.34,1.085-1.107,1.975-2.114,2.452
		c-0.36,0.169-0.517,0.605-0.352,0.974c0.085,0.193,0.248,0.338,0.447,0.398l0.904,0.274c-1.29,1.127-2.744,2.037-4.311,2.699
		l-6.021,2.549c-0.365,0.155-0.541,0.584-0.39,0.959c0.037,0.09,0.09,0.171,0.156,0.24l10.994,11.296H28.425z"/>
</g>
</svg>
