<?xml version="1.0" encoding="utf-8"?>
<!-- Generator: Adobe Illustrator 16.0.0, SVG Export Plug-In . SVG Version: 6.00 Build 0)  -->
<!DOCTYPE svg PUBLIC "-//W3C//DTD SVG 1.1//EN" "http://www.w3.org/Graphics/SVG/1.1/DTD/svg11.dtd">
<svg version="1.1" id="Layer_1" xmlns="http://www.w3.org/2000/svg" xmlns:xlink="http://www.w3.org/1999/xlink" x="0px" y="0px"
	 width="171.5px" height="57.092px" viewBox="0 0 171.5 57.092" enable-background="new 0 0 171.5 57.092" xml:space="preserve">
<g id="logo_white" transform="translate(-69.675 -45)">
	<g id="_756748" transform="translate(69.675 45)">
		<path id="Path_18" fill="#D59B2D" d="M14.956,15.98c-0.436-0.436-1.142-0.436-1.577,0c0,0,0,0,0,0l-2.408,2.4
			C7.331,21.992,5.288,26.911,5.3,32.039v3.128l-4.973,4.975c-0.457,0.414-0.492,1.119-0.079,1.575
			c0.414,0.456,1.119,0.491,1.575,0.079c0.026-0.025,0.052-0.051,0.076-0.077l5.3-5.3c0.209-0.209,0.327-0.492,0.327-0.788v-3.589
			c-0.013-4.537,1.793-8.89,5.013-12.086l2.407-2.4C15.384,17.123,15.388,16.418,14.956,15.98z"/>
		<path id="Path_19" fill="#D59B2D" d="M16.609,14.332c0.436,0.435,1.142,0.435,1.577-0.001c0.435-0.436,0.435-1.142-0.001-1.577
			c-0.435-0.435-1.14-0.435-1.576,0c-0.436,0.432-0.438,1.136-0.007,1.571C16.604,14.328,16.607,14.33,16.609,14.332z"/>
		<path id="Path_20" fill="#D59B2D" d="M54.079,17.935c0-2.247-1.563-4.191-3.757-4.675c1.636-2.075,1.279-5.084-0.796-6.72
			c-1.737-1.369-4.187-1.369-5.924,0c-0.569-2.582-3.123-4.213-5.704-3.644c-0.682,0.15-1.322,0.447-1.876,0.871
			c-0.558-2.582-3.104-4.222-5.685-3.663c-0.899,0.194-1.723,0.644-2.374,1.295L19.7,9.663c-0.436,0.436-0.436,1.142,0,1.577
			c0.435,0.435,1.141,0.435,1.577,0l0,0l8.264-8.264c1.004-0.993,2.622-0.983,3.615,0.021c0.915,0.925,0.988,2.39,0.171,3.402
			l-2.875,2.882c-0.436,0.435-0.436,1.141,0,1.577h0l0,0l0,0c0.435,0.436,1.141,0.436,1.577,0c0,0,0,0,0,0l2.7-2.7
			c0.079-0.079,0.154-0.162,0.227-0.245l2.161-2.161c0.998-0.998,2.616-0.998,3.615,0c0.927,0.928,1.002,2.407,0.173,3.423
			l-5.278,5.278c-0.436,0.436-0.436,1.141,0,1.577c0,0,0,0,0,0h0.005l0,0c0.436,0.435,1.142,0.436,1.577,0l0,0l5.1-5.1
			c0.08-0.08,0.155-0.162,0.228-0.247l2.215-2.189c0.999-0.999,2.617-0.999,3.615,0c0.998,0.998,0.998,2.617,0,3.615l0,0
			l-2.215,2.213c-0.084,0.073-0.167,0.149-0.247,0.228l-5.1,5.1c-0.436,0.436-0.436,1.142,0,1.577h0l0,0l0,0
			c0.435,0.436,1.141,0.436,1.577,0l0,0l5.278-5.278c1.094-0.893,2.704-0.729,3.596,0.365c0.829,1.016,0.754,2.496-0.173,3.423
			L43.55,27.27l-7.9-7.9c-1.24-1.241-3.25-1.242-4.491-0.002c-0.255,0.254-0.464,0.55-0.62,0.875
			c-1.524-0.868-3.462-0.335-4.33,1.188c-0.047,0.083-0.09,0.167-0.13,0.254c-1.575-0.772-3.478-0.122-4.25,1.453
			c-0.433,0.882-0.433,1.915,0,2.797c-1.596,0.727-2.301,2.611-1.574,4.208c0.158,0.346,0.376,0.66,0.646,0.93l3.134,3.134
			c-1.331,0.146-2.571,0.743-3.517,1.69l-0.552,0.552c-0.436,0.436-0.436,1.142,0,1.577s1.142,0.436,1.577,0l0.552-0.553
			c1.2-1.196,3.061-1.421,4.511-0.543c-1.765,0.216-3.021,1.822-2.804,3.588c0.114,0.929,0.626,1.762,1.404,2.282l4.635,3.108
			c1.042,0.699,2.194,1.219,3.408,1.537c-2.794,0.918-5.717,1.387-8.658,1.391h-4.2c-0.296,0-0.579,0.118-0.788,0.327l-6.022,6.022
			c-0.436,0.436-0.436,1.141,0,1.576s1.142,0.436,1.577,0l0,0l5.695-5.699h3.737c4.724-0.006,9.381-1.123,13.593-3.26h0.606
			l8.943,8.941c0.436,0.436,1.142,0.436,1.577,0s0.436-1.142,0-1.577l-9.27-9.271c-0.209-0.209-0.493-0.326-0.788-0.326l0,0h-3.148
			H36.09c-1.783,0.002-3.526-0.529-5.006-1.523l-4.635-3.107c-0.462-0.295-0.598-0.908-0.303-1.371
			c0.294-0.461,0.908-0.598,1.37-0.303l2,1.215c0.67,0.407,1.542,0.193,1.949-0.477c0.339-0.559,0.252-1.277-0.21-1.74l-8.76-8.766
			c-0.372-0.367-0.375-0.966-0.007-1.338c0.339-0.343,0.883-0.375,1.261-0.075l5.206,5.206c0.435,0.436,1.141,0.436,1.577,0l0,0l0,0
			l0,0c0.436-0.436,0.436-1.142,0-1.576c0,0,0-0.001,0-0.001l-5.126-5.126c-0.049-0.049-0.1-0.095-0.15-0.139l-1.232-1.232
			c-0.377-0.362-0.389-0.962-0.026-1.339c0.363-0.377,0.962-0.389,1.339-0.026c0.009,0.009,0.018,0.018,0.026,0.026l1.233,1.233
			c0.045,0.051,0.091,0.1,0.139,0.149l5.126,5.126c0.436,0.435,1.142,0.436,1.577,0l0,0l0,0l0,0c0.436-0.436,0.436-1.143,0-1.578
			l0,0l-5.206-5.206c-0.349-0.392-0.314-0.993,0.078-1.342c0.392-0.35,0.993-0.315,1.342,0.077l0,0l1.379,1.379
			c0.045,0.051,0.091,0.1,0.139,0.15l3.6,3.6c0.436,0.436,1.142,0.436,1.577,0c0,0,0,0,0,0l0,0l0,0c0.436-0.435,0.436-1.141,0-1.577
			l0,0l-3.682-3.682c-0.325-0.409-0.257-1.004,0.152-1.329c0.377-0.3,0.921-0.268,1.261,0.075l8.689,8.688l0,0l0.7,0.7
			c1.695,1.685,2.643,3.979,2.633,6.368v2.035c0,0.297,0.117,0.58,0.327,0.79l5.674,5.674c0.436,0.436,1.142,0.436,1.577,0
			c0.436-0.436,0.436-1.142,0-1.577l-5.347-5.347v-1.572c0.012-2.937-1.136-5.76-3.195-7.855l7.534-7.534
			C53.575,20.43,54.083,19.208,54.079,17.935z"/>
		<path id="Path_21" fill="#D59B2D" d="M56.763,46.711c-0.436-0.435-1.142-0.435-1.577,0.001c-0.435,0.436-0.435,1.142,0.001,1.576
			c0.436,0.436,1.142,0.436,1.577,0c0.209-0.209,0.327-0.493,0.326-0.789C57.09,47.203,56.972,46.92,56.763,46.711z"/>
		<path id="Path_22" fill="#D59B2D" d="M34.339,38.896l-0.308,0.309c-0.435,0.436-0.435,1.142,0,1.577
			c0.436,0.435,1.142,0.435,1.577,0l0.308-0.308c0.61-0.609,1.597-0.609,2.207,0c0.436,0.436,1.142,0.436,1.578,0
			c0.436-0.436,0.436-1.142,0-1.578C38.218,37.42,35.822,37.42,34.339,38.896z"/>
	</g>
</g>
<g>
	<path fill="#D9E7DB" stroke="#D9E7DB" stroke-width="2" stroke-miterlimit="10" d="M63.986,24.883l5.698-15.303h1.515l5.885,15.303
		h-2.128l-1.234-3.535H67.17l-1.249,3.535H63.986z M67.791,19.551h5.271l-2.61-7.568l-0.25,0.889
		c-0.048,0.176-0.104,0.352-0.169,0.528L67.791,19.551z"/>
	<path fill="#D9E7DB" stroke="#D9E7DB" stroke-width="2" stroke-miterlimit="10" d="M81.648,9.6c2.484,0,4.404,0.583,5.759,1.748
		c1.504,1.295,2.256,3.262,2.256,5.898c0,2.63-0.754,4.593-2.264,5.889c-1.355,1.166-3.272,1.748-5.751,1.748h-2.889V9.6H81.648z
		 M80.587,11.397v11.689h1.337c3.929,0,5.893-1.948,5.893-5.845s-1.964-5.845-5.893-5.845H80.587z"/>
	<path fill="#D9E7DB" stroke="#D9E7DB" stroke-width="2" stroke-miterlimit="10" d="M92.204,24.883V9.6h1.811v15.283H92.204z"/>
	<path fill="#D9E7DB" stroke="#D9E7DB" stroke-width="2" stroke-miterlimit="10" d="M97.268,24.883V9.6h1.795l5.309,10.9
		c0.162,0.325,0.279,0.745,0.352,1.258c0.035-0.461,0.146-0.88,0.333-1.257L110.351,9.6h1.833v15.283h-1.818l0.125-10.381
		c0.006-0.527,0.086-1.247,0.24-2.158c-0.118,0.404-0.237,0.755-0.356,1.055c-0.083,0.208-0.22,0.531-0.41,0.967l-5.225,10.693
		l-5.367-10.977c-0.106-0.215-0.243-0.521-0.41-0.918l-0.231-0.684c0.124,0.456,0.205,0.895,0.24,1.318
		c0.012,0.117,0.018,0.257,0.018,0.42l0.09,10.664H97.268z"/>
	<path fill="#D9E7DB" stroke="#D9E7DB" stroke-width="2" stroke-miterlimit="10" d="M118.979,24.883l5.697-15.303h1.516
		l5.885,15.303h-2.129l-1.233-3.535h-6.552l-1.249,3.535H118.979z M122.784,19.551h5.271l-2.61-7.568l-0.25,0.889
		c-0.047,0.176-0.104,0.352-0.169,0.528L122.784,19.551z"/>
	<path fill="#D9E7DB" stroke="#D9E7DB" stroke-width="2" stroke-miterlimit="10" d="M136.64,9.6c2.484,0,4.405,0.583,5.76,1.748
		c1.504,1.295,2.256,3.262,2.256,5.898c0,2.63-0.755,4.593-2.265,5.889c-1.355,1.166-3.272,1.748-5.751,1.748h-2.889V9.6H136.64z
		 M135.58,11.397v11.689h1.337c3.93,0,5.894-1.948,5.894-5.845s-1.964-5.845-5.894-5.845H135.58z"/>
	<path fill="#D9E7DB" stroke="#D9E7DB" stroke-width="2" stroke-miterlimit="10" d="M147.197,24.883V9.6h1.811v15.283H147.197z"/>
	<path fill="#D9E7DB" stroke="#D9E7DB" stroke-width="2" stroke-miterlimit="10" d="M152.261,24.883V9.6h1.795l5.309,10.9
		c0.162,0.325,0.279,0.745,0.352,1.258c0.035-0.461,0.146-0.88,0.333-1.257L165.344,9.6h1.833v15.283h-1.818l0.125-10.381
		c0.006-0.527,0.086-1.247,0.24-2.158c-0.118,0.404-0.237,0.755-0.356,1.055c-0.083,0.208-0.22,0.531-0.41,0.967l-5.225,10.693
		l-5.367-10.977c-0.106-0.215-0.243-0.521-0.41-0.918l-0.231-0.684c0.124,0.456,0.205,0.895,0.24,1.318
		c0.012,0.117,0.018,0.257,0.018,0.42l0.09,10.664H152.261z"/>
</g>
<g>
	<path fill="#D9E7DB" stroke="#D9E7DB" stroke-width="2" stroke-miterlimit="10" d="M83.553,49.713V34.43h2.002l-0.029,7.168
		l0.586-0.723l5.605-6.445h2.589l-6.983,7.656c0.131,0.078,0.261,0.195,0.391,0.352l0.098,0.117l6.641,7.158h-2.773l-6.152-6.758
		l0.029,0.918v5.84H83.553z"/>
	<path fill="#D9E7DB" stroke="#D9E7DB" stroke-width="2" stroke-miterlimit="10" d="M98.524,34.43v9.424
		c0,1.321,0.306,2.36,0.918,3.115c0.671,0.813,1.65,1.221,2.939,1.221c1.296,0,2.272-0.407,2.93-1.221
		c0.605-0.742,0.908-1.78,0.908-3.115V34.43h2.002v9.541c0,1.81-0.518,3.265-1.553,4.365c-1.062,1.12-2.49,1.68-4.287,1.68
		s-3.226-0.563-4.287-1.689c-1.048-1.101-1.572-2.552-1.572-4.355V34.43H98.524z"/>
	<path fill="#D9E7DB" stroke="#D9E7DB" stroke-width="2" stroke-miterlimit="10" d="M114.774,34.43c2.722,0,4.824,0.583,6.309,1.748
		c1.647,1.296,2.471,3.262,2.471,5.898c0,2.63-0.827,4.593-2.48,5.889c-1.484,1.165-3.584,1.748-6.299,1.748h-3.164V34.43H114.774z
		 M113.612,36.227v11.689h1.465c4.304,0,6.455-1.948,6.455-5.845s-2.151-5.845-6.455-5.845H113.612z"/>
	<path fill="#D9E7DB" stroke="#D9E7DB" stroke-width="2" stroke-miterlimit="10" d="M128.202,34.43v9.424
		c0,1.321,0.306,2.36,0.918,3.115c0.671,0.813,1.65,1.221,2.939,1.221c1.296,0,2.272-0.407,2.93-1.221
		c0.605-0.742,0.908-1.78,0.908-3.115V34.43h2.002v9.541c0,1.81-0.518,3.265-1.553,4.365c-1.062,1.12-2.49,1.68-4.287,1.68
		s-3.226-0.563-4.287-1.689c-1.048-1.101-1.572-2.552-1.572-4.355V34.43H128.202z M129.168,31.451c0-0.293,0.114-0.55,0.342-0.771
		s0.488-0.332,0.781-0.332c0.3,0,0.554,0.108,0.762,0.327s0.313,0.477,0.313,0.776c0,0.319-0.1,0.581-0.298,0.786
		s-0.457,0.308-0.776,0.308c-0.332,0-0.603-0.101-0.811-0.303S129.168,31.776,129.168,31.451z M132.733,31.451
		c0-0.293,0.109-0.55,0.327-0.771s0.474-0.332,0.767-0.332s0.55,0.11,0.771,0.332s0.332,0.479,0.332,0.771
		c0,0.319-0.104,0.581-0.313,0.786s-0.472,0.308-0.791,0.308c-0.313,0-0.573-0.104-0.781-0.313S132.733,31.764,132.733,31.451z"/>
	<path fill="#D9E7DB" stroke="#D9E7DB" stroke-width="2" stroke-miterlimit="10" d="M142.499,45.338c0,0.921,0.29,1.639,0.869,2.15
		c0.554,0.487,1.299,0.73,2.236,0.73c0.808,0,1.478-0.188,2.012-0.566c0.605-0.429,0.908-1.03,0.908-1.805
		c0-0.846-0.339-1.513-1.015-2.001c-0.397-0.286-1.126-0.604-2.187-0.956l-0.471-0.151c-1.275-0.424-2.227-0.893-2.852-1.406
		c-0.866-0.71-1.299-1.729-1.299-3.057c0-1.321,0.449-2.353,1.348-3.095c0.833-0.696,1.924-1.045,3.271-1.045
		c1.484,0,2.669,0.407,3.555,1.221c0.95,0.872,1.426,1.999,1.426,3.379h-1.999c-0.234-1.96-1.22-2.939-2.956-2.939
		c-0.786,0-1.43,0.212-1.931,0.635c-0.526,0.456-0.79,1.071-0.79,1.846c0,0.788,0.266,1.374,0.798,1.758
		c0.376,0.273,1.025,0.56,1.946,0.859l0.605,0.195c1.673,0.54,2.864,1.182,3.574,1.924c0.657,0.696,0.986,1.608,0.986,2.734
		c0,1.309-0.515,2.363-1.543,3.164c-0.944,0.735-2.09,1.104-3.438,1.104c-1.458,0-2.639-0.403-3.54-1.211s-1.414-1.937-1.538-3.389
		L142.499,45.338z"/>
</g>
</svg>
